<mxfile host="app.diagrams.net" agent="Mozilla/5.0 (Windows NT 10.0; Win64; x64) AppleWebKit/537.36 (KHTML, like Gecko) Chrome/126.0.0.0 Safari/537.36" version="24.7.4">
  <diagram name="Page-1" id="Mq07d8Tasdf_FGT2xFhH">
    <mxGraphModel dx="880" dy="426" grid="0" gridSize="10" guides="1" tooltips="1" connect="1" arrows="1" fold="1" page="1" pageScale="1" pageWidth="850" pageHeight="1100" math="0" shadow="0">
      <root>
        <mxCell id="0" />
        <mxCell id="1" parent="0" />
        <mxCell id="Ui2qDnnyOZmy7S83HE-X-67" value="" style="rounded=0;whiteSpace=wrap;html=1;fillColor=#dae8fc;strokeColor=#6c8ebf;" vertex="1" parent="1">
          <mxGeometry x="200" y="139" width="532" height="177" as="geometry" />
        </mxCell>
        <mxCell id="Ui2qDnnyOZmy7S83HE-X-69" value="" style="shape=image;html=1;verticalAlign=top;verticalLabelPosition=bottom;labelBackgroundColor=#ffffff;imageAspect=0;aspect=fixed;image=https://cdn4.iconfinder.com/data/icons/crime-and-security-24/64/16-128.png" vertex="1" parent="1">
          <mxGeometry x="563" y="144" width="128" height="128" as="geometry" />
        </mxCell>
        <mxCell id="Ui2qDnnyOZmy7S83HE-X-70" value="" style="shape=cylinder3;whiteSpace=wrap;html=1;boundedLbl=1;backgroundOutline=1;size=15;fillColor=#fff2cc;strokeColor=#d6b656;" vertex="1" parent="1">
          <mxGeometry x="254" y="165.5" width="66" height="85" as="geometry" />
        </mxCell>
        <mxCell id="Ui2qDnnyOZmy7S83HE-X-71" value="DATA STORE" style="text;html=1;align=center;verticalAlign=middle;whiteSpace=wrap;rounded=0;" vertex="1" parent="1">
          <mxGeometry x="257" y="261" width="60" height="30" as="geometry" />
        </mxCell>
        <mxCell id="Ui2qDnnyOZmy7S83HE-X-72" value="High Availability &amp;amp; Fault tolerance" style="text;html=1;align=center;verticalAlign=middle;whiteSpace=wrap;rounded=0;" vertex="1" parent="1">
          <mxGeometry x="430.5" y="267" width="95.5" height="30" as="geometry" />
        </mxCell>
        <mxCell id="Ui2qDnnyOZmy7S83HE-X-73" value="Watch Mechanism" style="text;html=1;align=center;verticalAlign=middle;whiteSpace=wrap;rounded=0;" vertex="1" parent="1">
          <mxGeometry x="605" y="258" width="60" height="30" as="geometry" />
        </mxCell>
        <mxCell id="Ui2qDnnyOZmy7S83HE-X-74" value="" style="sketch=0;aspect=fixed;pointerEvents=1;shadow=0;dashed=0;html=1;strokeColor=none;labelPosition=center;verticalLabelPosition=bottom;verticalAlign=top;align=center;fillColor=#00188D;shape=mxgraph.mscae.general.graph" vertex="1" parent="1">
          <mxGeometry x="424.5" y="171" width="83" height="83" as="geometry" />
        </mxCell>
        <mxCell id="Ui2qDnnyOZmy7S83HE-X-75" value="&lt;b&gt;&lt;font style=&quot;font-size: 14px;&quot;&gt;ETCD&lt;/font&gt;&lt;/b&gt;" style="text;html=1;align=center;verticalAlign=middle;whiteSpace=wrap;rounded=0;" vertex="1" parent="1">
          <mxGeometry x="417.5" y="97" width="60" height="30" as="geometry" />
        </mxCell>
        <mxCell id="Ui2qDnnyOZmy7S83HE-X-77" value="" style="rounded=1;whiteSpace=wrap;html=1;fillColor=#d5e8d4;strokeColor=#82b366;" vertex="1" parent="1">
          <mxGeometry x="166" y="601" width="435" height="231" as="geometry" />
        </mxCell>
        <mxCell id="Ui2qDnnyOZmy7S83HE-X-78" value="" style="rounded=1;whiteSpace=wrap;html=1;fillColor=#dae8fc;strokeColor=#6c8ebf;" vertex="1" parent="1">
          <mxGeometry x="43" y="600" width="120" height="233" as="geometry" />
        </mxCell>
        <mxCell id="Ui2qDnnyOZmy7S83HE-X-79" value="" style="rounded=1;whiteSpace=wrap;html=1;fillColor=#fff2cc;strokeColor=#d6b656;" vertex="1" parent="1">
          <mxGeometry x="605" y="601" width="210" height="233" as="geometry" />
        </mxCell>
        <mxCell id="Ui2qDnnyOZmy7S83HE-X-83" value="" style="shape=step;perimeter=stepPerimeter;whiteSpace=wrap;html=1;fixedSize=1;rotation=-90;fillColor=#f8cecc;strokeColor=#b85450;" vertex="1" parent="1">
          <mxGeometry x="53" y="759" width="110" height="33" as="geometry" />
        </mxCell>
        <mxCell id="Ui2qDnnyOZmy7S83HE-X-86" value="" style="endArrow=classic;html=1;rounded=0;exitX=0;exitY=0.5;exitDx=0;exitDy=0;entryX=1;entryY=0.5;entryDx=0;entryDy=0;" edge="1" parent="1" source="Ui2qDnnyOZmy7S83HE-X-78" target="Ui2qDnnyOZmy7S83HE-X-78">
          <mxGeometry width="50" height="50" relative="1" as="geometry">
            <mxPoint x="398" y="692" as="sourcePoint" />
            <mxPoint x="448" y="642" as="targetPoint" />
          </mxGeometry>
        </mxCell>
        <mxCell id="Ui2qDnnyOZmy7S83HE-X-87" value="" style="endArrow=classic;html=1;rounded=0;exitX=0;exitY=0.635;exitDx=0;exitDy=0;exitPerimeter=0;entryX=0.75;entryY=0;entryDx=0;entryDy=0;" edge="1" parent="1" source="Ui2qDnnyOZmy7S83HE-X-78" target="Ui2qDnnyOZmy7S83HE-X-83">
          <mxGeometry width="50" height="50" relative="1" as="geometry">
            <mxPoint x="398" y="692" as="sourcePoint" />
            <mxPoint x="448" y="642" as="targetPoint" />
          </mxGeometry>
        </mxCell>
        <mxCell id="Ui2qDnnyOZmy7S83HE-X-89" value="" style="endArrow=classic;html=1;rounded=0;exitX=0;exitY=0.5;exitDx=0;exitDy=0;entryX=1;entryY=0.5;entryDx=0;entryDy=0;" edge="1" parent="1" source="Ui2qDnnyOZmy7S83HE-X-77" target="Ui2qDnnyOZmy7S83HE-X-77">
          <mxGeometry width="50" height="50" relative="1" as="geometry">
            <mxPoint x="398" y="692" as="sourcePoint" />
            <mxPoint x="448" y="642" as="targetPoint" />
          </mxGeometry>
        </mxCell>
        <mxCell id="Ui2qDnnyOZmy7S83HE-X-90" value="" style="endArrow=classic;html=1;rounded=0;exitX=0;exitY=0.5;exitDx=0;exitDy=0;entryX=1;entryY=0.5;entryDx=0;entryDy=0;" edge="1" parent="1" source="Ui2qDnnyOZmy7S83HE-X-79" target="Ui2qDnnyOZmy7S83HE-X-79">
          <mxGeometry width="50" height="50" relative="1" as="geometry">
            <mxPoint x="398" y="692" as="sourcePoint" />
            <mxPoint x="448" y="642" as="targetPoint" />
          </mxGeometry>
        </mxCell>
        <mxCell id="Ui2qDnnyOZmy7S83HE-X-91" value="" style="shape=step;perimeter=stepPerimeter;whiteSpace=wrap;html=1;fixedSize=1;rotation=-90;fillColor=#ffe6cc;strokeColor=#d79b00;movable=1;resizable=1;rotatable=1;deletable=1;editable=1;locked=0;connectable=1;" vertex="1" parent="1">
          <mxGeometry x="153" y="759" width="110" height="33" as="geometry" />
        </mxCell>
        <mxCell id="Ui2qDnnyOZmy7S83HE-X-92" value="" style="shape=step;perimeter=stepPerimeter;whiteSpace=wrap;html=1;fixedSize=1;rotation=-90;fillColor=#ffe6cc;strokeColor=#d79b00;movable=1;resizable=1;rotatable=1;deletable=1;editable=1;locked=0;connectable=1;" vertex="1" parent="1">
          <mxGeometry x="200" y="757" width="110" height="33" as="geometry" />
        </mxCell>
        <mxCell id="Ui2qDnnyOZmy7S83HE-X-93" value="" style="shape=step;perimeter=stepPerimeter;whiteSpace=wrap;html=1;fixedSize=1;rotation=-90;fillColor=#ffe6cc;strokeColor=#d79b00;movable=1;resizable=1;rotatable=1;deletable=1;editable=1;locked=0;connectable=1;" vertex="1" parent="1">
          <mxGeometry x="276" y="759" width="110" height="33" as="geometry" />
        </mxCell>
        <mxCell id="Ui2qDnnyOZmy7S83HE-X-94" value="" style="shape=step;perimeter=stepPerimeter;whiteSpace=wrap;html=1;fixedSize=1;rotation=-90;fillColor=#ffe6cc;strokeColor=#d79b00;movable=1;resizable=1;rotatable=1;deletable=1;editable=1;locked=0;connectable=1;" vertex="1" parent="1">
          <mxGeometry x="323" y="759" width="110" height="33" as="geometry" />
        </mxCell>
        <mxCell id="Ui2qDnnyOZmy7S83HE-X-95" value="" style="shape=step;perimeter=stepPerimeter;whiteSpace=wrap;html=1;fixedSize=1;rotation=-90;fillColor=#ffe6cc;strokeColor=#d79b00;movable=1;resizable=1;rotatable=1;deletable=1;editable=1;locked=0;connectable=1;" vertex="1" parent="1">
          <mxGeometry x="373" y="759" width="110" height="33" as="geometry" />
        </mxCell>
        <mxCell id="Ui2qDnnyOZmy7S83HE-X-96" value="" style="shape=step;perimeter=stepPerimeter;whiteSpace=wrap;html=1;fixedSize=1;rotation=-90;fillColor=#ffe6cc;strokeColor=#d79b00;movable=1;resizable=1;rotatable=1;deletable=1;editable=1;locked=0;connectable=1;" vertex="1" parent="1">
          <mxGeometry x="427" y="759" width="110" height="33" as="geometry" />
        </mxCell>
        <mxCell id="Ui2qDnnyOZmy7S83HE-X-97" value="" style="shape=step;perimeter=stepPerimeter;whiteSpace=wrap;html=1;fixedSize=1;rotation=-90;fillColor=#ffe6cc;strokeColor=#d79b00;movable=1;resizable=1;rotatable=1;deletable=1;editable=1;locked=0;connectable=1;" vertex="1" parent="1">
          <mxGeometry x="491" y="757" width="110" height="33" as="geometry" />
        </mxCell>
        <mxCell id="Ui2qDnnyOZmy7S83HE-X-98" value="" style="shape=step;perimeter=stepPerimeter;whiteSpace=wrap;html=1;fixedSize=1;rotation=90;fillColor=#f8cecc;strokeColor=#b85450;movable=1;resizable=1;rotatable=1;deletable=1;editable=1;locked=0;connectable=1;" vertex="1" parent="1">
          <mxGeometry x="232" y="643" width="110" height="33" as="geometry" />
        </mxCell>
        <mxCell id="Ui2qDnnyOZmy7S83HE-X-99" value="" style="endArrow=classic;html=1;rounded=0;exitX=0;exitY=0.5;exitDx=0;exitDy=0;" edge="1" parent="1" source="Ui2qDnnyOZmy7S83HE-X-77">
          <mxGeometry width="50" height="50" relative="1" as="geometry">
            <mxPoint x="398" y="692" as="sourcePoint" />
            <mxPoint x="286" y="717" as="targetPoint" />
            <Array as="points">
              <mxPoint x="219" y="717" />
            </Array>
          </mxGeometry>
        </mxCell>
        <mxCell id="Ui2qDnnyOZmy7S83HE-X-100" value="" style="shape=step;perimeter=stepPerimeter;whiteSpace=wrap;html=1;fixedSize=1;rotation=-90;fillColor=#dae8fc;strokeColor=#6c8ebf;" vertex="1" parent="1">
          <mxGeometry x="622" y="759" width="110" height="33" as="geometry" />
        </mxCell>
        <mxCell id="Ui2qDnnyOZmy7S83HE-X-101" value="" style="shape=step;perimeter=stepPerimeter;whiteSpace=wrap;html=1;fixedSize=1;rotation=-90;fillColor=#dae8fc;strokeColor=#6c8ebf;" vertex="1" parent="1">
          <mxGeometry x="663" y="759" width="110" height="33" as="geometry" />
        </mxCell>
        <mxCell id="Ui2qDnnyOZmy7S83HE-X-102" value="" style="shape=step;perimeter=stepPerimeter;whiteSpace=wrap;html=1;fixedSize=1;rotation=-90;fillColor=#dae8fc;strokeColor=#6c8ebf;" vertex="1" parent="1">
          <mxGeometry x="705" y="759" width="110" height="33" as="geometry" />
        </mxCell>
        <mxCell id="Ui2qDnnyOZmy7S83HE-X-103" value="PreEnqueue" style="text;html=1;align=center;verticalAlign=middle;whiteSpace=wrap;rounded=0;rotation=-90;" vertex="1" parent="1">
          <mxGeometry x="75" y="762" width="60" height="30" as="geometry" />
        </mxCell>
        <mxCell id="Ui2qDnnyOZmy7S83HE-X-104" value="PreFilter" style="text;html=1;align=center;verticalAlign=middle;whiteSpace=wrap;rounded=0;rotation=-90;movable=1;resizable=1;rotatable=1;deletable=1;editable=1;locked=0;connectable=1;" vertex="1" parent="1">
          <mxGeometry x="178" y="759" width="60" height="30" as="geometry" />
        </mxCell>
        <mxCell id="Ui2qDnnyOZmy7S83HE-X-105" value="Filter" style="text;html=1;align=center;verticalAlign=middle;whiteSpace=wrap;rounded=0;rotation=-90;movable=1;resizable=1;rotatable=1;deletable=1;editable=1;locked=0;connectable=1;" vertex="1" parent="1">
          <mxGeometry x="225" y="758.5" width="60" height="30" as="geometry" />
        </mxCell>
        <mxCell id="Ui2qDnnyOZmy7S83HE-X-106" value="PreScore" style="text;html=1;align=center;verticalAlign=middle;whiteSpace=wrap;rounded=0;rotation=-90;movable=1;resizable=1;rotatable=1;deletable=1;editable=1;locked=0;connectable=1;" vertex="1" parent="1">
          <mxGeometry x="299" y="762" width="60" height="30" as="geometry" />
        </mxCell>
        <mxCell id="Ui2qDnnyOZmy7S83HE-X-107" value="Score" style="text;html=1;align=center;verticalAlign=middle;whiteSpace=wrap;rounded=0;rotation=-90;movable=1;resizable=1;rotatable=1;deletable=1;editable=1;locked=0;connectable=1;" vertex="1" parent="1">
          <mxGeometry x="348" y="762" width="60" height="30" as="geometry" />
        </mxCell>
        <mxCell id="Ui2qDnnyOZmy7S83HE-X-108" value="Normalize score" style="text;html=1;align=center;verticalAlign=middle;whiteSpace=wrap;rounded=0;rotation=-90;movable=1;resizable=1;rotatable=1;deletable=1;editable=1;locked=0;connectable=1;" vertex="1" parent="1">
          <mxGeometry x="398" y="762" width="60" height="30" as="geometry" />
        </mxCell>
        <mxCell id="Ui2qDnnyOZmy7S83HE-X-109" value="Reserve" style="text;html=1;align=center;verticalAlign=middle;whiteSpace=wrap;rounded=0;rotation=-90;movable=1;resizable=1;rotatable=1;deletable=1;editable=1;locked=0;connectable=1;" vertex="1" parent="1">
          <mxGeometry x="452" y="762" width="60" height="30" as="geometry" />
        </mxCell>
        <mxCell id="Ui2qDnnyOZmy7S83HE-X-110" value="Permit" style="text;html=1;align=center;verticalAlign=middle;whiteSpace=wrap;rounded=0;rotation=-90;movable=1;resizable=1;rotatable=1;deletable=1;editable=1;locked=0;connectable=1;" vertex="1" parent="1">
          <mxGeometry x="516" y="758.5" width="60" height="30" as="geometry" />
        </mxCell>
        <mxCell id="Ui2qDnnyOZmy7S83HE-X-111" value="PreBind" style="text;html=1;align=center;verticalAlign=middle;whiteSpace=wrap;rounded=0;rotation=-90;" vertex="1" parent="1">
          <mxGeometry x="647" y="762" width="60" height="30" as="geometry" />
        </mxCell>
        <mxCell id="Ui2qDnnyOZmy7S83HE-X-112" value="Bind" style="text;html=1;align=center;verticalAlign=middle;whiteSpace=wrap;rounded=0;rotation=-90;" vertex="1" parent="1">
          <mxGeometry x="688" y="760.5" width="60" height="30" as="geometry" />
        </mxCell>
        <mxCell id="Ui2qDnnyOZmy7S83HE-X-113" value="PostBind" style="text;html=1;align=center;verticalAlign=middle;whiteSpace=wrap;rounded=0;rotation=-90;" vertex="1" parent="1">
          <mxGeometry x="730" y="762" width="60" height="30" as="geometry" />
        </mxCell>
        <mxCell id="Ui2qDnnyOZmy7S83HE-X-114" value="PostFilter" style="text;html=1;align=center;verticalAlign=middle;whiteSpace=wrap;rounded=0;rotation=-90;movable=1;resizable=1;rotatable=1;deletable=1;editable=1;locked=0;connectable=1;" vertex="1" parent="1">
          <mxGeometry x="257" y="644.5" width="60" height="30" as="geometry" />
        </mxCell>
        <mxCell id="Ui2qDnnyOZmy7S83HE-X-115" value="" style="shape=step;perimeter=stepPerimeter;whiteSpace=wrap;html=1;fixedSize=1;fillColor=#f8cecc;strokeColor=#b85450;" vertex="1" parent="1">
          <mxGeometry x="66" y="695" width="97" height="17" as="geometry" />
        </mxCell>
        <mxCell id="Ui2qDnnyOZmy7S83HE-X-116" value="sort" style="text;html=1;align=center;verticalAlign=middle;whiteSpace=wrap;rounded=0;" vertex="1" parent="1">
          <mxGeometry x="84.5" y="688.5" width="60" height="30" as="geometry" />
        </mxCell>
        <mxCell id="Ui2qDnnyOZmy7S83HE-X-117" value="" style="rounded=1;whiteSpace=wrap;html=1;dashed=1;rotation=-90;fillColor=#f8cecc;strokeColor=#b85450;" vertex="1" parent="1">
          <mxGeometry x="583" y="758.5" width="100" height="29" as="geometry" />
        </mxCell>
        <mxCell id="Ui2qDnnyOZmy7S83HE-X-118" value="WaitOnPermit" style="text;html=1;align=center;verticalAlign=middle;whiteSpace=wrap;rounded=0;rotation=-90;" vertex="1" parent="1">
          <mxGeometry x="601" y="764" width="60" height="30" as="geometry" />
        </mxCell>
        <mxCell id="Ui2qDnnyOZmy7S83HE-X-119" value="&lt;b&gt;&lt;font style=&quot;font-size: 14px;&quot;&gt;Kube scheduler&lt;/font&gt;&lt;/b&gt;" style="text;html=1;align=center;verticalAlign=middle;whiteSpace=wrap;rounded=0;" vertex="1" parent="1">
          <mxGeometry x="367" y="550" width="134" height="30" as="geometry" />
        </mxCell>
        <mxCell id="Ui2qDnnyOZmy7S83HE-X-120" value="&lt;b&gt;&lt;font style=&quot;font-size: 14px;&quot;&gt;SCORING CYCLE&lt;/font&gt;&lt;/b&gt;" style="text;html=1;align=center;verticalAlign=middle;whiteSpace=wrap;rounded=0;movable=1;resizable=1;rotatable=1;deletable=1;editable=1;locked=0;connectable=1;" vertex="1" parent="1">
          <mxGeometry x="314" y="834" width="134" height="30" as="geometry" />
        </mxCell>
        <mxCell id="Ui2qDnnyOZmy7S83HE-X-121" value="&lt;b&gt;&lt;font style=&quot;font-size: 14px;&quot;&gt;BINDING CYCLE&lt;/font&gt;&lt;/b&gt;" style="text;html=1;align=center;verticalAlign=middle;whiteSpace=wrap;rounded=0;" vertex="1" parent="1">
          <mxGeometry x="647" y="837" width="134" height="30" as="geometry" />
        </mxCell>
        <mxCell id="Ui2qDnnyOZmy7S83HE-X-123" value="New pods go throught PreEnqueue Plugin" style="text;html=1;align=center;verticalAlign=middle;whiteSpace=wrap;rounded=0;strokeColor=default;" vertex="1" parent="1">
          <mxGeometry x="51" y="620.5" width="100" height="63.5" as="geometry" />
        </mxCell>
        <mxCell id="Ui2qDnnyOZmy7S83HE-X-125" style="edgeStyle=orthogonalEdgeStyle;rounded=0;orthogonalLoop=1;jettySize=auto;html=1;exitX=0.75;exitY=1;exitDx=0;exitDy=0;" edge="1" parent="1" source="Ui2qDnnyOZmy7S83HE-X-124">
          <mxGeometry relative="1" as="geometry">
            <mxPoint x="481" y="721" as="targetPoint" />
          </mxGeometry>
        </mxCell>
        <mxCell id="Ui2qDnnyOZmy7S83HE-X-124" value="Reserve is a node for pod for the cache" style="text;html=1;align=center;verticalAlign=middle;whiteSpace=wrap;rounded=0;strokeColor=default;" vertex="1" parent="1">
          <mxGeometry x="371" y="620.5" width="165" height="54" as="geometry" />
        </mxCell>
        <mxCell id="Ui2qDnnyOZmy7S83HE-X-126" value="pick a pod from scheduling queue" style="text;html=1;align=center;verticalAlign=middle;whiteSpace=wrap;rounded=0;strokeColor=default;" vertex="1" parent="1">
          <mxGeometry x="170" y="625" width="93" height="63.5" as="geometry" />
        </mxCell>
        <mxCell id="Ui2qDnnyOZmy7S83HE-X-128" style="edgeStyle=orthogonalEdgeStyle;rounded=0;orthogonalLoop=1;jettySize=auto;html=1;exitX=0.5;exitY=1;exitDx=0;exitDy=0;" edge="1" parent="1" source="Ui2qDnnyOZmy7S83HE-X-127">
          <mxGeometry relative="1" as="geometry">
            <mxPoint x="719" y="719" as="targetPoint" />
          </mxGeometry>
        </mxCell>
        <mxCell id="Ui2qDnnyOZmy7S83HE-X-127" value="Bind pod to a node" style="text;html=1;align=center;verticalAlign=middle;whiteSpace=wrap;rounded=0;strokeColor=default;" vertex="1" parent="1">
          <mxGeometry x="667.5" y="625" width="93" height="63.5" as="geometry" />
        </mxCell>
      </root>
    </mxGraphModel>
  </diagram>
</mxfile>
